HIERARCHY
ROOT Hips
{
	OFFSET	0.00	0.00	0.00
	CHANNELS 6 Xposition Yposition Zposition Zrotation Xrotation Yrotation
	JOINT Spine
	{
		OFFSET	 0.00	0.01	 0.00
		CHANNELS 3 Zrotation Xrotation Yrotation
		JOINT Spine1
		{
			OFFSET	 0.00	 2.45913012437421	 0.00
			CHANNELS 3 Zrotation Xrotation Yrotation
            JOINT Neck
            {
                OFFSET	 0.00	 2.48462964506057	 0.00
                CHANNELS 3 Zrotation Xrotation Yrotation
                JOINT Head
                {
                    OFFSET	 0.00	 0.927524780924562	 0.00
                    CHANNELS 3 Zrotation Xrotation Yrotation
                    End Site 
                    {
                        OFFSET	 0.00	 1.14999962169752	 0.00
                    }
                }
            }
			JOINT LeftShoulder
			{
				OFFSET	 0.00	 2.48462964506057	 0.00
				CHANNELS 3 Zrotation Xrotation Yrotation
				JOINT LeftUpArm
				{
					OFFSET	 0.00	 1.24881979654096	 0.00
					CHANNELS 3 Zrotation Xrotation Yrotation
					JOINT LeftForeArm
					{
						OFFSET	 0.00	2.59758046908119	 0.00
						CHANNELS 3 Zrotation Xrotation Yrotation
						JOINT LeftHand
						{
							OFFSET	 0.00	2.45542024364365	 0.00
							CHANNELS 3 Zrotation Xrotation Yrotation
							JOINT LeftHandThumb 
							{
								OFFSET	 0.00	0.00	 0.00
								CHANNELS 3 Zrotation Xrotation Yrotation
								End Site
								{
									OFFSET	 0.00	0.00	1.00000003353624
								}
							}
							JOINT L_Wrist_End 
							{
								OFFSET	 0.00	0.99999967115358	 0.00
								CHANNELS 3 Zrotation Xrotation Yrotation
								End Site 
								{
									OFFSET	 0.00	 0.00	 0.00
								}
							}
						}
					}
				}
			}
			JOINT RightShoulder
			{
				OFFSET	 0.00	 2.48462964506057	 0.00
				CHANNELS 3 Zrotation Xrotation Yrotation
				JOINT RightUpArm
				{
					OFFSET	 0.00	 1.24881979654096	 0.00
					CHANNELS 3 Zrotation Xrotation Yrotation
					JOINT RightForeArm
					{
						OFFSET	 0.00	2.59758046908119	 0.00
						CHANNELS 3 Zrotation Xrotation Yrotation
						JOINT RightHand
						{
							OFFSET	 0.00	2.45542024364365	 0.00
							CHANNELS 3 Zrotation Xrotation Yrotation
							JOINT RightHandThumb 
							{
								OFFSET	 0.00	0.00	 0.00
								CHANNELS 3 Zrotation Xrotation Yrotation
								End Site
								{
									OFFSET	 0.00	0.00	1.00000003353624
								}
							}
							JOINT R_Wrist_End 
							{
								OFFSET	 0.00	0.99999967115358	 0.00
								CHANNELS 3 Zrotation Xrotation Yrotation
								End Site 
								{
									OFFSET	 0.00	 0.00	 0.00
								}
							}
						}
					}
				}
			}
		}
	}
	JOINT LeftUpLeg
	{
		OFFSET	 1.2719394002717	 0.00	 0.00
		CHANNELS 3 Zrotation Xrotation Yrotation
		JOINT LeftLowLeg
		{
			OFFSET	 0.00	-4.3429100912261	 0.00
			CHANNELS 3 Zrotation Xrotation Yrotation
			JOINT LeftFoot
			{
				OFFSET	 0.00	-4.48767017425826	 0.00
				CHANNELS 3 Zrotation Xrotation Yrotation
				JOINT LeftToeBase
                {
                    OFFSET	 0.00	0.00	 1.51507020887566
                    CHANNELS 3 Zrotation Xrotation Yrotation
                    End Site 
                    {
                        OFFSET	 0.00	0.00	 0.75000010571191
                    }
                }
			}
		}
	}
	JOINT RightUpLeg
	{
		OFFSET	 -1.2719393604653	 0.00	 0.00
		CHANNELS 3 Zrotation Xrotation Yrotation
		JOINT RightLowLeg
		{
			OFFSET	 0.00	-4.3429100912261	 0.00
			CHANNELS 3 Zrotation Xrotation Yrotation
			JOINT RightFoot
			{
				OFFSET	 0.00	-4.48767017425826	 0.00
				CHANNELS 3 Zrotation Xrotation Yrotation
				JOINT RightToeBase
                {
                    OFFSET	 0.00	0.00	 1.51507020887566
                    CHANNELS 3 Zrotation Xrotation Yrotation
                    End Site 
                    {
                        OFFSET	 0.00	0.00	 0.749999965609858
                    }
                }   
			}
		}
	}
}
MOTION 
Frames:	8 
Frame Time: 0.02 
  -2.002790069580078 8.008920288085937 10.3397998046875 13.5196 81.5473 -8.86559 4.66619 -12.4084 -1.62831 -4.03434 32.8628 -6.34828 5.81964 58.4161 -0.0756981 19.2789 -68.3802 18.5871 -114.7027 -3.68419 -14.193 -26.0178 -4.47864 30.0027 0.0 47.7111 0.0 23.8622 -4.97058 21.4075 0.0 0.0 0.0 0.0 0.0 0.0 117.3457 -0.781216 6.47671 18.3615 11.1614 11.0239 0.0 108.286 0.0 -29.5484 7.49648 -32.4898 0.0 0.0 0.0 0.0 0.0 0.0 11.8705 5.05001 1.62654 0.0 27.8219 0.0 -17.4602 10.45306 11.2816 0.0 -16.56749 0.0 8.36446 0.346122 7.10466 0.0 26.2165 0.0 14.9312 0.6882 -23.0646 0.0 -12.20668 0.0 
  -2.0233299255371096 8.020599975585938 10.35739990234375 13.8814 81.8865 -8.97357 5.02899 -12.4933 -1.36704 -4.39379 33.1725 -6.33418 6.22535 58.0067 -0.302515 20.1302 -68.0143 19.8704 -114.561005 -3.63644 -14.2557 -26.5387 -4.55698 30.5552 0.0 46.3487 0.0 23.0243 -5.48338 19.882 0.0 0.0 0.0 0.0 0.0 0.0 117.8466 -0.539821 6.2279 19.6553 12.1182 12.8985 0.0 107.787 0.0 -34.7421 10.1154 -31.4499 0.0 0.0 0.0 0.0 0.0 0.0 11.8017 4.16514 2.06474 0.0 28.3147 0.0 -16.9179 10.575069 12.1126 0.0 -15.963078 0.0 8.44436 0.521482 7.19907 0.0 25.028 0.0 14.9298 1.1394997 -23.4268 0.0 -12.00668 0.0 
  -2.0418600463867187 8.03051025390625 10.3768994140625 14.3386 82.1522 -9.23586 5.37306 -12.5333 -1.08981 -4.75142 33.4789 -6.28838 6.15739 57.5938 0.123564 21.1742 -67.7377 21.3067 -114.4423 -3.64222 -14.26 -27.1171 -4.58767 31.0937 0.0 44.9119 0.0 22.0292 -5.99816 18.2897 0.0 0.0 0.0 0.0 0.0 0.0 118.3022 -0.184732 6.21915 21.0441 12.9342 14.4753 0.0 107.304 0.0 -40.8792 13.0493 -33.8996 0.0 0.0 0.0 0.0 0.0 0.0 11.6591 3.43129 2.59567 0.0 28.6605 0.0 -16.2983 10.79459 13.1126 0.0 -15.710728 0.0 8.53352 0.870905 7.66903 0.0 23.6722 0.0 15.0613 1.5544996 -24.0301 0.0 -11.77119 0.0 
  -2.0589199829101563 8.041370239257812 10.396600341796875 15.1152 82.4555 -9.83274 5.72079 -12.5652 -0.770241 -5.16763 33.6409 -6.23499 5.97272 57.2424 0.716432 22.202 -67.4203 22.596 -114.2826 -3.64746 -14.2103 -27.738 -4.70151 31.5403 0.0 43.4762 0.0 20.6944 -6.49176 16.8944 0.0 0.0 0.0 0.0 0.0 0.0 118.7612 0.285044 6.01073 22.3185 13.6789 16.1246 0.0 107.014 0.0 -45.1812 14.6158 -32.5707 0.0 0.0 0.0 0.0 0.0 0.0 11.4666 2.64376 3.32254 0.0 29.0291 0.0 -15.3449 10.9227295 14.1315 0.0 -15.481473 0.0 8.58384 1.1707 8.17668 0.0 22.3246 0.0 15.0961 2.0141 -24.7038 0.0 -11.59499 0.0 
  -2.0729299926757814 8.0481298828125 10.41699951171875 15.9821 82.7384 -10.6135 5.98385 -12.6398 -0.484758 -5.38648 33.8553 -6.06767 5.82509 56.7468 1.09751 22.8028 -67.1828 23.259 -114.2704 -3.73565 -14.0581 -28.3977 -4.62273 31.9363 0.0 42.0269 0.0 19.0726 -6.91569 15.884 0.0 0.0 0.0 0.0 0.0 0.0 119.1012 0.61719 5.72256 23.2606 14.6872 17.5259 0.0 106.825 0.0 -49.2624 15.7359 -31.1957 0.0 0.0 0.0 0.0 0.0 0.0 11.2146 2.01043 4.15413 0.0 29.2354 0.0 -14.1458 11.11778 15.1786 0.0 -15.898283 0.0 8.58479 1.58506 8.80238 0.0 20.8413 0.0 15.1135 2.4803 -25.3793 0.0 -11.32748 0.0 
  -2.0834800720214846 8.053099975585937 10.43699951171875 16.8826 83.0262 -11.4031 6.2362 -12.7065 -0.224799 -5.5633 33.8213 -5.95021 5.93616 56.5918 1.05366 23.1198 -67.0642 23.5531 -114.2962 -3.72487 -14.0454 -28.9583 -4.9453 32.4402 0.0 40.7524 0.0 17.2116 -7.36679 16.0167 0.0 0.0 0.0 0.0 0.0 0.0 119.3126 1.11471 5.4401 24.0603 15.4591 18.2783 0.0 106.604 0.0 -53.4665 17.5017 -32.1981 0.0 0.0 0.0 0.0 0.0 0.0 10.944 1.39819 4.902 0.0 29.3801 0.0 -12.7601 11.27427 16.1428 0.0 -16.91283 0.0 8.53103 2.03748 9.30248 0.0 19.2918 0.0 15.1786 2.9808998 -25.9351 0.0 -11.13032 0.0 
  -2.0931500244140624 8.061309814453125 10.453699951171876 17.6399 83.484 -11.8863 6.549 -12.7778 0.0735376 -5.7173 33.6871 -5.82338 6.79381 56.3181 0.0147726 23.7149 -67.1528 24.1816 -114.2386 -3.76417 -14.3638 -29.5733 -5.27669 33.2825 0.0 39.5569 0.0 15.544 -7.77474 16.0036 0.0 0.0 0.0 0.0 0.0 0.0 119.4839 1.00617 5.53382 24.8905 16.277 18.0652 0.0 106.697 0.0 -55.9519 18.5887 -31.3531 0.0 0.0 0.0 0.0 0.0 0.0 10.7469 0.53065 5.35752 0.0 29.5389 0.0 -11.9246 11.10284 16.5363 0.0 -18.19528 0.0 8.51075 2.28823 9.58819 0.0 17.7863 0.0 15.2639 3.4866 -26.3814 0.0 -10.96968 0.0 
  -2.1007699584960937 8.066959838867188 10.468399658203126 18.34 83.8978 -12.3362 6.82616 -12.8255 0.361773 -5.81799 33.3893 -5.69541 7.93398 56.2243 -1.4472 23.9858 -67.1946 24.525 -114.3006 -3.75421 -14.1445 -29.9677 -5.53483 33.9 0.0 38.6096 0.0 14.0726 -8.08278 16.0957 0.0 0.0 0.0 0.0 0.0 0.0 119.6072 1.06379 5.37329 25.3413 16.8723 17.5072 0.0 106.851 0.0 -57.5084 20.1573 -30.3158 0.0 0.0 0.0 0.0 0.0 0.0 10.5718 -0.210993 5.71555 0.0 29.5248 0.0 -12.209 10.60435 15.8472 0.0 -18.98607 0.0 8.4551 2.59621 9.78229 0.0 16.292 0.0 15.3649 3.9849005 -26.6501 0.0 -10.833 0.0 
